<?xml version="1.0" standalone="no"?>
<!DOCTYPE svg PUBLIC "-//W3C//DTD SVG 20010904//EN"
 "http://www.w3.org/TR/2001/REC-SVG-20010904/DTD/svg10.dtd">
<svg version="1.0" xmlns="http://www.w3.org/2000/svg"
 width="1215.000000pt" height="1280.000000pt" viewBox="0 0 1215.000000 1280.000000"
 preserveAspectRatio="xMidYMid meet">

<g transform="translate(0.000000,1280.000000) scale(0.100000,-0.100000)"
fill="#000000" stroke="none">
<path d="M2464 12701 c-127 -23 -213 -51 -339 -111 -479 -229 -865 -704 -1030
-1267 -63 -211 -61 -198 -185 -1413 -44 -432 -86 -848 -95 -925 -8 -77 -22
-210 -31 -295 -8 -85 -24 -238 -35 -340 -10 -102 -26 -255 -34 -340 -8 -85
-22 -216 -30 -290 -8 -74 -24 -227 -35 -340 -12 -113 -28 -266 -36 -340 -8
-74 -19 -184 -24 -245 -6 -60 -17 -168 -25 -240 -8 -71 -24 -222 -35 -335 -12
-113 -30 -288 -40 -390 -11 -102 -24 -232 -30 -290 -6 -58 -19 -193 -30 -300
-12 -107 -43 -413 -70 -680 -27 -267 -57 -550 -65 -630 -9 -80 -18 -167 -20
-195 -3 -27 -16 -156 -30 -285 -13 -129 -36 -347 -50 -485 -43 -422 -65 -632
-86 -830 -33 -299 -35 -483 -9 -640 24 -146 80 -326 135 -436 93 -185 260
-390 430 -529 266 -217 612 -372 960 -430 119 -20 173 -20 4430 -20 3770 0
4326 2 4432 15 286 35 568 142 821 309 502 332 777 815 759 1331 -2 77 -16
223 -30 325 -14 102 -39 291 -56 420 -53 404 -101 769 -121 930 -11 85 -22
166 -25 180 -3 14 -12 81 -20 150 -8 69 -26 211 -40 315 -14 105 -30 226 -35
270 -6 44 -19 150 -31 235 -11 85 -29 220 -39 300 -11 80 -28 215 -40 300 -19
146 -29 225 -80 610 -11 85 -36 274 -55 420 -19 146 -44 335 -55 420 -10 85
-35 274 -54 420 -19 146 -44 335 -55 420 -27 203 -46 353 -77 585 -54 411 -65
494 -80 615 -8 68 -17 134 -19 145 -3 11 -12 76 -20 145 -8 69 -26 211 -40
315 -14 105 -34 258 -45 340 -11 83 -28 218 -39 300 -50 377 -63 480 -81 620
-63 487 -75 547 -144 758 -72 219 -156 391 -292 597 -274 417 -637 705 -1021
812 l-78 22 -1640 7 c-902 3 -2439 7 -3415 7 -1655 0 -1782 -1 -1876 -17z
m3944 -29 c-1 -4 -26 -29 -54 -55 -38 -35 -59 -47 -83 -47 -17 0 -31 3 -31 6
0 3 12 28 28 55 l27 49 58 0 c32 0 57 -3 55 -8z m-1820 -136 c51 -26 116 -115
98 -133 -3 -3 -31 -11 -63 -17 l-58 -12 -31 33 c-38 41 -80 44 -120 9 -24 -20
-28 -32 -32 -89 -6 -92 10 -134 56 -148 51 -15 89 1 108 46 8 19 20 35 27 35
17 0 109 -30 119 -39 13 -11 -28 -86 -65 -118 -47 -41 -105 -57 -184 -50 -106
10 -170 55 -203 144 -41 110 -17 238 58 304 25 22 62 43 85 48 55 13 168 6
205 -13z m1038 1 c38 -20 80 -65 94 -101 6 -16 9 -30 7 -32 -1 -2 -32 -10 -67
-18 -48 -12 -66 -12 -69 -4 -2 7 -14 22 -27 35 -33 33 -78 30 -116 -7 -29 -30
-30 -32 -27 -116 3 -72 7 -88 24 -100 53 -39 113 -24 140 35 l17 38 61 -20
c34 -11 64 -22 66 -24 13 -10 -25 -86 -59 -116 -48 -44 -106 -61 -185 -54
-142 13 -213 88 -223 233 -8 129 48 227 149 260 54 17 174 12 215 -9z m761 10
c65 -17 106 -50 138 -111 20 -41 25 -64 25 -128 0 -118 -35 -183 -125 -231
-57 -31 -192 -31 -251 1 -47 24 -90 71 -111 119 -20 48 -17 179 6 229 49 107
179 157 318 121z m1355 -14 c30 -17 88 -107 76 -118 -2 -3 -37 -8 -76 -11 -51
-5 -72 -4 -72 5 0 40 -84 67 -110 35 -20 -23 3 -39 80 -58 138 -35 190 -80
190 -164 0 -103 -88 -172 -220 -172 -101 0 -177 40 -206 109 -26 62 -21 71 41
73 30 1 62 2 70 2 8 1 23 -15 33 -34 22 -45 69 -61 107 -36 14 9 25 24 25 33
0 24 -30 53 -54 53 -45 1 -161 50 -188 80 -23 25 -28 39 -28 85 0 49 4 58 34
88 19 19 52 39 73 45 57 16 186 8 225 -15z m-4791 -43 c6 -28 6 -45 0 -49 -5
-3 -57 -19 -116 -36 l-107 -30 6 -29 c4 -16 8 -31 10 -34 3 -2 47 8 98 23 51
15 101 29 110 31 13 4 20 -5 28 -37 14 -53 9 -66 -32 -74 -18 -4 -64 -16 -101
-28 l-68 -21 6 -36 c4 -19 10 -38 13 -41 4 -3 50 7 102 22 154 47 145 47 158
1 19 -63 16 -69 -35 -85 -159 -51 -337 -97 -343 -90 -11 12 -134 452 -128 458
12 12 374 112 381 105 5 -4 13 -27 18 -50z m534 41 c81 -36 119 -111 119 -231
0 -80 -17 -131 -56 -176 -43 -49 -104 -64 -260 -64 l-128 0 0 245 0 245 143 0
c116 0 149 -4 182 -19z m356 -161 c3 -96 6 -176 7 -177 11 -10 73 -22 88 -17
52 19 54 26 54 206 l0 168 81 0 81 0 -4 -183 c-3 -181 -3 -184 -31 -225 -43
-65 -94 -87 -202 -86 -103 1 -148 16 -188 64 -39 46 -47 90 -47 268 l0 163 78
-3 77 -3 6 -175z m1294 -2 c37 -101 79 -211 92 -246 l23 -63 -82 3 -83 3 -11
35 -12 35 -82 0 -83 0 -12 -35 -12 -35 -76 -3 c-48 -2 -77 1 -77 7 0 6 16 52
36 103 19 51 52 140 74 198 21 58 45 122 54 143 l16 37 83 0 84 0 68 -182z
m830 -63 l0 -240 -77 -3 -78 -3 0 246 0 246 78 -3 77 -3 0 -240z m889 124 c74
-111 99 -143 95 -122 -1 4 -1 61 0 126 l1 117 70 0 70 0 0 -245 0 -245 -73 0
-72 0 -37 58 c-20 31 -58 89 -85 127 l-48 70 -3 -128 -3 -128 -72 3 -72 3 -3
230 c-1 126 0 235 2 242 4 9 28 13 78 12 l73 0 79 -120z m1207 -59 c3 -96 6
-176 7 -177 11 -10 73 -22 88 -17 52 19 54 26 54 206 l0 168 80 0 80 0 0 -157
c0 -216 -18 -270 -103 -316 -34 -17 -59 -22 -127 -22 -125 0 -184 29 -221 110
-16 34 -19 66 -19 213 l0 173 78 -3 77 -3 6 -175z m736 163 c50 -23 73 -66 73
-133 0 -105 -47 -149 -170 -157 l-80 -6 -1 -73 c-1 -41 -2 -80 -3 -86 -1 -14
-156 -19 -156 -5 0 4 0 113 0 242 l0 235 151 0 c120 0 158 -3 186 -17z m414
-77 c30 -13 106 -45 169 -71 63 -26 117 -49 119 -52 6 -4 -18 -74 -31 -90 -7
-9 -21 -7 -56 9 -68 30 -165 68 -172 68 -7 0 -33 -51 -28 -55 8 -8 162 -75
172 -75 34 -1 38 -17 18 -64 -12 -25 -23 -46 -26 -46 -4 0 -49 18 -102 40 -53
22 -100 40 -104 40 -12 0 -33 -68 -25 -80 3 -5 10 -10 16 -10 20 0 194 -79
197 -90 2 -6 -4 -32 -13 -56 -13 -34 -21 -44 -34 -39 -9 3 -94 38 -189 78
-160 67 -172 74 -167 94 5 21 63 164 120 294 14 31 32 72 40 92 8 21 21 37 29
37 7 0 38 -11 67 -24z m619 -359 c63 -56 125 -118 138 -137 61 -89 -33 -216
-144 -196 l-34 7 -1 -58 c-1 -63 -28 -174 -44 -180 -5 -1 -36 21 -68 50 l-58
52 20 90 c24 107 25 116 8 139 -11 16 -18 11 -72 -53 -33 -39 -64 -71 -70 -70
-5 0 -34 21 -63 48 l-53 47 158 182 c87 100 160 182 163 182 3 0 57 -46 120
-103z m-7722 -45 c-29 -26 -71 -64 -93 -84 l-40 -37 22 -22 c26 -26 25 -27
128 65 l66 59 37 -37 37 -37 -35 -32 c-19 -18 -59 -52 -88 -77 l-52 -46 28
-33 28 -34 94 82 c51 44 97 81 101 81 8 0 69 -71 69 -80 0 -4 -68 -67 -152
-140 l-151 -134 -45 50 c-24 27 -96 109 -159 182 l-116 134 29 28 c16 16 83
76 149 134 l120 106 38 -40 38 -41 -53 -47z m6723 -137 c247 -43 492 -181 713
-401 257 -255 454 -585 561 -939 41 -137 59 -228 85 -425 62 -488 93 -732 111
-870 10 -85 26 -207 34 -270 8 -63 24 -187 35 -275 12 -88 27 -209 35 -270 8
-60 19 -146 25 -190 5 -44 21 -170 35 -280 14 -110 34 -267 45 -350 11 -82 31
-238 45 -345 80 -625 80 -616 67 -718 -18 -138 -27 -143 -41 -21 -7 57 -19
149 -27 204 -8 55 -21 159 -29 230 -8 72 -16 137 -19 145 -3 8 -10 60 -16 115
-11 108 -41 346 -65 515 -8 58 -20 152 -26 209 -5 58 -12 108 -14 111 -2 4
-11 75 -20 160 -9 85 -18 157 -21 161 -2 4 -11 69 -19 146 -9 76 -20 163 -25
193 -5 30 -14 102 -20 160 -6 58 -15 130 -20 160 -5 30 -16 111 -24 180 -9 69
-27 213 -41 320 -14 107 -37 285 -50 395 -34 267 -54 398 -71 470 -20 80 -75
257 -84 270 -4 6 -13 28 -20 50 -12 36 -122 260 -153 309 -61 99 -177 256
-233 316 -98 105 -136 142 -209 201 -189 154 -387 251 -568 278 -36 5 -1244
11 -2902 13 -3023 3 -2882 5 -3035 -44 -89 -28 -245 -107 -349 -176 -172 -114
-388 -349 -510 -556 -50 -85 -131 -249 -131 -266 0 -5 -11 -38 -24 -72 -53
-141 -90 -298 -105 -459 -7 -63 -16 -141 -21 -174 -5 -33 -11 -103 -15 -155
-3 -52 -12 -147 -20 -210 -7 -63 -16 -146 -20 -185 -3 -38 -12 -133 -20 -210
-15 -140 -37 -363 -55 -547 -6 -54 -14 -142 -20 -195 -10 -101 -93 -923 -111
-1093 -5 -52 -16 -169 -24 -260 -8 -91 -17 -176 -20 -190 -3 -14 -12 -99 -20
-190 -23 -262 -37 -363 -47 -346 -19 33 -21 211 -4 361 9 83 23 218 31 300 8
83 48 485 89 895 174 1720 197 1952 212 2100 18 186 35 289 75 434 142 517
485 957 914 1171 117 58 201 88 305 110 53 11 585 13 2916 14 2465 1 2863 -1
2935 -14z m1374 -205 l46 -60 -186 -147 c-102 -82 -190 -149 -194 -151 -5 -2
-30 24 -55 57 l-47 60 148 117 c81 64 166 132 188 150 22 18 43 33 47 34 4 0
28 -27 53 -60z m-4263 -8 c38 -52 171 -135 233 -146 118 -21 187 -28 260 -24
74 4 85 2 80 -11 -8 -20 -204 -331 -223 -353 -14 -17 -45 -18 -387 -18 l-372
0 -44 61 c-24 34 -62 85 -84 113 -52 66 -123 169 -131 190 -6 15 7 16 123 10
212 -11 356 33 464 141 30 30 57 54 61 55 4 0 13 -8 20 -18z m-4136 -42 c61
-30 133 -95 150 -137 18 -42 18 -100 -1 -152 -11 -34 -113 -196 -147 -235 -11
-14 -410 254 -404 271 7 18 102 159 139 207 61 78 160 95 263 46z m8542 -236
c90 -37 162 -151 162 -257 0 -97 -45 -159 -157 -216 -147 -74 -288 -2 -348
177 -12 37 -15 67 -11 95 24 150 216 259 354 201z m-8862 -529 c58 -24 102
-62 125 -107 18 -35 21 -55 17 -122 -5 -101 -41 -175 -106 -221 -41 -28 -50
-30 -130 -30 -104 1 -159 22 -215 84 -44 49 -61 108 -53 180 13 109 72 197
152 227 48 18 155 12 210 -11z m9218 -150 c40 -159 44 -223 19 -261 -19 -30
-82 -64 -119 -64 -35 0 -102 39 -110 63 -5 16 -9 13 -23 -19 -18 -40 -146
-158 -161 -149 -4 3 -16 40 -25 82 l-17 78 76 70 c52 48 76 77 76 93 0 27 -6
27 -105 1 -63 -16 -80 -18 -86 -7 -7 11 -14 37 -32 132 -2 6 421 120 464 125
4 1 23 -64 43 -144z m-9541 -365 l38 0 -6 -78 -7 -78 182 -18 182 -19 -7 -71
c-3 -39 -10 -74 -13 -78 -4 -3 -83 1 -177 11 -93 10 -173 16 -176 14 -4 -1
-10 -35 -14 -74 l-7 -71 -59 4 c-32 2 -60 6 -63 9 -4 4 29 373 39 427 5 29 10
33 28 28 12 -3 39 -6 60 -6z m5057 -244 c0 -30 -7 -133 -14 -228 -8 -95 -16
-207 -18 -248 l-3 -75 45 -3 c111 -7 370 -58 546 -108 24 -6 17 -24 144 374
34 105 63 192 66 192 5 0 536 -220 546 -226 4 -3 -53 -125 -126 -272 l-134
-267 81 -45 c107 -59 296 -184 376 -249 42 -34 68 -48 75 -42 6 5 92 106 191
225 99 118 185 215 190 216 6 0 105 -94 220 -210 181 -181 208 -212 195 -223
-8 -8 -110 -96 -227 -196 l-212 -182 76 -97 c88 -112 178 -246 235 -349 22
-40 42 -73 45 -73 2 0 122 61 265 135 143 75 262 134 263 133 2 -2 26 -59 55
-128 28 -69 78 -190 111 -269 33 -78 58 -148 56 -155 -3 -6 -127 -51 -276 -99
-149 -48 -271 -91 -271 -95 0 -4 18 -77 39 -162 21 -85 46 -207 55 -270 10
-63 19 -130 22 -147 3 -23 10 -33 23 -33 21 0 479 38 534 44 l37 4 0 -305 0
-305 -42 6 c-73 9 -537 40 -542 35 -3 -2 -11 -56 -20 -120 -18 -138 -50 -294
-82 -408 -14 -46 -23 -85 -22 -86 4 -2 486 -156 526 -167 17 -5 32 -14 32 -19
0 -10 -217 -539 -224 -546 -2 -2 -121 55 -265 126 -143 72 -263 131 -265 131
-2 0 -23 -34 -45 -75 -52 -94 -183 -290 -250 -374 -28 -35 -51 -67 -51 -71 0
-5 389 -340 437 -375 12 -9 -29 -54 -196 -220 -116 -116 -215 -210 -219 -210
-5 0 -93 98 -197 217 -103 120 -191 218 -194 218 -4 0 -43 -28 -86 -61 -109
-84 -232 -166 -342 -228 -92 -53 -92 -53 -80 -80 7 -15 68 -134 136 -265 67
-131 119 -241 115 -246 -11 -9 -546 -232 -549 -228 -1 2 -44 129 -94 283 -51
154 -94 281 -95 282 -1 2 -34 -6 -72 -17 -124 -36 -283 -69 -415 -87 l-130
-17 5 -45 c4 -25 13 -134 21 -241 8 -107 18 -223 21 -257 l7 -63 -302 0 -301
0 0 38 c0 20 9 154 20 297 10 143 16 263 12 266 -4 3 -52 11 -107 18 -123 15
-325 55 -423 83 -40 12 -75 19 -78 16 -3 -3 -45 -130 -94 -283 -49 -152 -90
-278 -92 -280 -3 -3 -168 64 -460 186 l-97 41 134 268 134 269 -83 45 c-103
56 -234 142 -349 229 -49 37 -90 67 -92 67 -4 0 -199 -227 -322 -376 -29 -34
-56 -65 -61 -68 -4 -2 -104 91 -220 207 l-212 213 225 194 225 194 -25 30
c-75 92 -203 275 -261 374 -37 61 -69 112 -72 112 -3 0 -119 -58 -258 -130
-139 -71 -257 -130 -262 -130 -5 0 -44 84 -87 188 -43 103 -94 224 -113 270
-20 48 -31 87 -26 92 5 4 128 47 274 95 146 48 267 89 270 92 2 2 -4 34 -14
71 -36 132 -67 279 -85 405 -10 70 -21 130 -25 134 -3 4 -129 -3 -279 -15
-149 -13 -280 -22 -289 -22 -17 0 -18 21 -18 300 0 279 1 300 18 300 9 0 134
-9 277 -20 143 -11 267 -20 277 -20 18 0 16 -6 44 193 9 65 33 187 54 270 21
84 34 154 30 157 -5 3 -131 43 -279 90 -149 47 -271 89 -271 94 0 19 224 546
232 546 4 0 125 -58 268 -130 l260 -130 21 43 c43 84 153 254 235 364 46 61
84 115 83 120 0 4 -97 89 -216 188 -118 99 -218 186 -221 193 -5 15 394 422
414 422 5 0 32 -26 60 -57 27 -32 107 -125 178 -208 71 -82 135 -156 141 -164
11 -11 34 2 139 81 69 52 185 130 258 173 73 43 135 80 137 81 2 2 -28 63 -67
136 -123 236 -205 399 -201 402 2 1 51 22 109 45 58 24 181 75 273 113 92 39
169 69 171 67 2 -2 46 -130 97 -284 72 -214 98 -279 109 -277 8 2 74 19 145
37 130 33 264 59 385 73 l65 7 -3 70 c-1 39 -12 170 -22 291 -11 122 -20 227
-20 233 0 8 84 11 300 11 l300 0 0 -54z m4600 -43 c0 -5 9 -70 19 -145 20
-146 17 -193 -16 -230 -41 -47 -135 -62 -199 -32 -40 19 -84 99 -84 153 0 60
-7 63 -102 55 l-85 -6 -10 71 c-5 40 -6 74 -2 77 5 3 77 14 161 25 84 11 178
24 208 28 74 11 110 13 110 4z m-9625 -238 c189 -21 192 -22 240 -66 58 -53
74 -115 56 -220 -14 -84 -29 -117 -71 -153 -54 -45 -95 -50 -274 -32 -87 9
-162 19 -166 21 -5 3 7 146 13 151 1 0 61 -5 132 -12 177 -17 199 -17 225 4
30 24 32 85 3 113 -18 18 -43 23 -169 36 -82 7 -155 16 -161 18 -14 5 -18 91
-7 133 8 26 9 27 179 7z m9703 -318 c5 -37 5 -70 1 -73 -4 -2 -76 -13 -161
-25 -155 -21 -181 -30 -193 -70 -11 -33 14 -88 41 -95 28 -7 140 2 257 20 43
7 80 9 82 6 6 -9 25 -143 22 -147 -3 -3 -99 -16 -235 -33 -120 -15 -175 -4
-225 48 -61 64 -88 221 -51 295 42 82 93 108 254 127 52 7 115 15 140 19 25 4
48 5 52 2 4 -3 11 -37 16 -74z m-9838 -204 l33 -6 -6 -73 -7 -72 53 -7 c28 -4
108 -13 177 -19 l125 -12 -2 -73 c-1 -40 -4 -75 -6 -78 -4 -4 -209 11 -313 23
l-51 6 -5 -71 c-3 -40 -8 -74 -11 -77 -3 -3 -30 -3 -61 1 l-56 7 0 40 c0 42
27 328 36 386 4 27 9 32 33 32 16 0 43 -3 61 -7z m9894 -290 c10 -33 36 -243
36 -289 0 -25 -7 -58 -15 -74 -32 -62 -121 -79 -174 -34 -26 21 -31 23 -31 9
0 -9 -15 -32 -34 -51 -30 -30 -40 -34 -85 -34 -72 0 -113 37 -135 123 -16 63
-48 298 -42 304 2 2 91 15 197 29 107 13 199 26 204 28 29 12 74 5 79 -11z
m-9740 -249 l188 -18 -4 -73 c-3 -40 -8 -76 -11 -79 -4 -4 -77 1 -164 10 -87
9 -194 20 -238 24 l-80 7 4 70 c2 39 6 74 8 79 3 5 29 6 57 3 28 -3 136 -14
240 -23z m-240 -200 l47 -7 -7 -77 -6 -76 159 -13 c196 -15 206 -17 199 -45
-3 -11 -6 -45 -6 -75 l0 -54 -82 6 c-46 4 -128 11 -182 17 -55 5 -101 8 -103
7 -1 -2 -6 -36 -9 -76 l-7 -74 -60 7 c-33 3 -62 8 -64 10 -2 1 7 105 19 229
24 252 15 232 102 221z m10050 -76 c3 -13 7 -46 11 -74 7 -62 21 -56 -187 -80
-81 -9 -151 -20 -156 -23 -6 -4 -4 -48 5 -114 8 -60 12 -111 9 -114 -3 -3 -31
-6 -63 -7 l-58 -1 -7 60 c-4 33 -15 115 -24 183 -10 67 -15 125 -11 128 3 4
55 13 114 21 59 7 149 20 198 27 141 21 164 20 169 -6z m73 -528 l5 -57 -83
-12 c-46 -6 -154 -21 -239 -31 -168 -21 -169 -21 -170 35 0 17 -3 46 -6 65
l-6 36 104 12 c56 7 164 21 238 30 156 20 146 25 157 -78z m-10112 80 c3 -5 3
-38 -1 -74 -6 -56 -10 -65 -29 -70 -46 -12 -58 -111 -13 -104 16 2 30 25 59
98 42 105 76 145 134 156 51 9 119 -19 153 -64 23 -30 28 -47 31 -114 4 -89
-10 -158 -41 -201 -22 -31 -88 -66 -125 -67 -22 0 -23 4 -23 74 l0 74 30 7
c37 8 60 39 60 80 0 37 -16 55 -46 55 -16 0 -28 -12 -43 -43 -12 -24 -21 -47
-21 -52 0 -24 -57 -114 -84 -133 -66 -45 -156 -19 -191 54 -37 76 -19 229 33
288 31 35 104 58 117 36z m10045 -270 c136 -70 164 -311 45 -400 -18 -14 -39
-25 -46 -25 -7 0 -22 27 -32 61 l-20 60 27 27 c36 36 35 80 -5 119 -29 29 -33
30 -93 26 -77 -7 -117 -24 -134 -61 -26 -54 22 -127 83 -127 13 0 15 -7 11
-27 -3 -16 -8 -47 -11 -70 -8 -50 -19 -53 -86 -24 -87 39 -121 102 -122 226
-1 88 11 121 60 166 81 76 227 98 323 49z m-9992 -224 c128 -13 235 -25 237
-28 3 -3 2 -36 -2 -74 l-8 -68 -60 -34 c-33 -19 -90 -50 -127 -70 -38 -19 -68
-39 -68 -42 0 -4 33 -10 73 -14 39 -3 93 -9 119 -12 l47 -6 -5 -52 c-9 -91
-10 -92 -46 -89 -18 2 -124 12 -235 23 -112 11 -205 20 -208 20 -7 0 -6 67 1
112 6 35 11 40 130 104 68 36 126 70 129 74 3 4 -49 14 -115 20 l-120 13 0 36
c0 47 11 111 19 111 3 0 111 -11 239 -24z m10060 -296 c105 -59 153 -240 95
-358 -55 -111 -264 -161 -374 -88 -131 87 -146 320 -26 416 78 63 221 77 305
30z m-10103 -275 c239 -21 225 -18 225 -63 0 -20 -3 -54 -7 -76 l-6 -39 -71 7
c-39 3 -145 13 -236 21 -91 8 -169 15 -173 15 -7 0 0 120 9 149 3 10 15 12 42
8 20 -3 118 -13 217 -22z m325 -940 c-6 -93 -16 -199 -21 -235 -6 -36 -14
-102 -18 -147 -6 -75 -5 -84 11 -89 42 -13 35 -100 -17 -201 -19 -37 -35 -80
-35 -95 0 -24 4 -28 30 -28 77 0 61 -143 -30 -260 -15 -19 -30 -47 -32 -62 -5
-28 5 -38 17 -18 11 17 61 11 80 -10 36 -40 -5 -164 -87 -264 l-41 -48 31 16
c32 17 69 20 96 10 12 -5 16 -20 16 -60 0 -58 -28 -126 -79 -193 l-25 -34 24
8 c28 8 25 8 61 6 105 -5 4 -254 -146 -362 -32 -23 -42 -37 -43 -59 -1 -28 0
-28 41 18 91 99 190 133 219 74 28 -56 -29 -184 -126 -283 -53 -54 -121 -99
-151 -99 -9 0 -15 -18 -20 -57 -3 -32 -7 -76 -10 -97 -2 -27 -1 -35 6 -25 5 7
9 21 9 28 0 17 39 77 92 143 75 91 191 139 218 89 20 -38 11 -89 -30 -168 -80
-154 -232 -265 -289 -210 -11 10 -12 -4 -6 -78 4 -49 9 -94 12 -98 3 -5 16 13
30 40 74 140 175 233 255 235 45 2 61 -25 54 -86 -8 -74 -52 -151 -131 -232
-73 -73 -125 -101 -169 -90 l-22 5 14 -104 c8 -58 18 -105 22 -105 4 0 12 19
19 43 30 99 143 242 218 273 79 34 118 8 110 -72 -12 -115 -132 -277 -243
-326 -41 -18 -47 -18 -68 -4 l-23 15 8 -42 c12 -65 47 -184 48 -163 2 48 73
169 139 237 62 64 71 69 110 69 49 0 62 -17 62 -79 0 -128 -160 -351 -252
-351 -35 0 -35 -3 9 -128 l26 -73 22 68 c63 197 215 343 271 258 35 -53 -5
-189 -89 -307 -54 -75 -116 -122 -150 -114 -21 5 -23 10 30 -110 l38 -85 6 43
c18 135 138 306 226 324 32 6 62 -14 64 -44 7 -121 -48 -247 -149 -345 -31
-31 -48 -39 -79 -40 l-39 -2 56 -97 c47 -83 55 -94 58 -70 6 64 24 127 51 186
46 98 144 196 195 196 8 0 24 -10 36 -22 52 -56 -4 -244 -107 -359 -51 -56
-96 -83 -124 -76 -11 3 -19 3 -19 0 0 -3 30 -48 68 -101 l67 -95 6 44 c19 147
141 321 241 344 19 5 32 1 48 -15 35 -35 23 -127 -30 -233 -45 -89 -91 -144
-158 -187 l-42 -28 85 -88 c46 -49 85 -94 85 -100 0 -6 -7 -18 -16 -25 -14
-12 -30 1 -125 98 -64 65 -109 104 -109 95 0 -18 -33 -36 -97 -54 l-37 -10 25
-19 c37 -29 207 -125 285 -160 129 -58 306 -111 430 -129 45 -6 1317 -10 3714
-10 3885 0 3727 -2 3898 45 138 39 307 111 426 183 37 23 71 42 75 42 3 1 19
12 35 25 l30 24 -30 7 c-16 4 -46 15 -66 26 -31 15 -38 24 -38 48 0 28 -4 25
-79 -58 -43 -48 -97 -105 -120 -127 l-41 -39 -21 21 -21 21 90 93 91 93 -50
28 c-115 66 -223 282 -195 392 14 58 86 54 147 -9 18 -18 38 -31 44 -28 5 4 7
3 3 -2 -4 -4 6 -27 23 -51 37 -55 67 -124 83 -193 l12 -55 56 75 c61 83 87
126 69 114 -48 -29 -168 81 -223 205 -29 64 -38 103 -38 161 0 51 3 61 24 74
36 24 74 9 133 -51 73 -75 126 -187 133 -282 l5 -73 55 97 c63 111 67 119 51
110 -23 -15 -71 7 -118 53 -52 51 -95 124 -124 210 -54 155 16 218 132 119 59
-51 147 -222 150 -292 1 -21 77 127 78 152 1 6 -10 12 -23 12 -33 0 -118 78
-161 150 -41 68 -75 167 -75 220 0 26 7 43 25 60 l25 23 41 -18 c74 -34 151
-140 193 -268 l22 -67 26 82 c43 135 42 126 15 121 -60 -12 -163 84 -226 210
-34 67 -43 94 -44 141 -1 63 14 86 58 86 82 0 235 -191 252 -316 l6 -47 22 86
c13 47 25 101 29 120 6 32 5 34 -18 30 -93 -18 -280 199 -294 340 -5 52 15 87
49 87 74 0 194 -112 257 -239 l37 -74 12 71 c6 40 14 81 18 91 5 18 2 19 -29
14 -88 -14 -249 146 -290 288 -47 159 79 164 221 8 43 -46 102 -147 104 -178
2 -22 27 146 28 184 0 25 -1 27 -10 13 -13 -24 -60 -23 -108 1 -54 28 -153
138 -190 212 -34 69 -42 147 -17 168 52 43 169 -28 257 -156 16 -23 33 -52 39
-65 7 -20 8 -18 6 12 -2 19 -4 53 -5 75 -1 38 -4 41 -48 59 -59 25 -123 83
-175 159 -87 128 -92 242 -10 239 38 -1 58 -11 127 -68 78 -63 69 -31 -13 52
-103 104 -166 249 -130 298 20 25 82 24 119 -3 22 -17 17 -6 -26 55 -74 102
-102 197 -72 239 11 14 22 17 55 12 47 -6 48 -12 -12 87 -56 93 -61 189 -11
202 17 4 24 12 21 23 -2 9 -7 43 -11 76 -3 33 -13 82 -22 108 -8 27 -13 60
-10 74 5 27 -5 118 -48 448 -14 110 -33 259 -41 330 -15 142 -19 535 -5 520 4
-6 32 -194 60 -420 29 -225 55 -429 58 -452 5 -38 8 -41 24 -32 14 7 30 5 62
-10 68 -31 144 -115 194 -215 l30 -59 6 121 c7 119 6 122 -17 145 -65 65 -59
265 10 384 44 77 93 80 125 10 37 -82 18 -259 -37 -354 -21 -36 -25 -60 -31
-165 l-6 -123 40 50 c86 108 203 185 281 185 46 0 62 -14 62 -55 0 -68 -109
-188 -222 -244 -64 -32 -131 -41 -145 -18 -13 20 -21 -39 -22 -168 l-1 -120
18 35 c42 86 197 201 290 216 48 8 82 -13 82 -50 0 -35 -55 -120 -108 -167
-98 -89 -245 -143 -271 -101 -14 23 -21 -25 -21 -152 l0 -120 28 45 c80 126
278 239 351 200 48 -26 14 -121 -75 -207 -92 -91 -224 -151 -277 -127 -24 11
-25 10 -31 -40 -3 -29 -6 -86 -6 -127 l0 -75 30 47 c89 142 305 262 364 202 9
-8 16 -24 16 -35 0 -81 -143 -229 -270 -279 -60 -24 -88 -25 -116 -5 -21 14
-22 13 -28 -32 -3 -25 -6 -72 -6 -104 l0 -58 52 55 c102 108 312 181 361 126
46 -51 -33 -151 -173 -221 -97 -48 -177 -62 -216 -36 -14 9 -27 15 -28 13 -2
-2 -8 -106 -15 -233 -7 -126 -15 -255 -18 -285 l-6 -55 57 62 c96 104 278 181
361 153 98 -32 15 -157 -162 -242 -89 -44 -182 -60 -221 -39 -22 12 -22 11
-16 -46 4 -32 9 -72 13 -89 l6 -32 62 37 c80 49 163 75 241 76 55 0 66 -3 82
-23 15 -19 17 -28 8 -52 -12 -35 -85 -103 -141 -132 -48 -24 -151 -56 -197
-60 -34 -3 -35 -4 -32 -43 2 -22 5 -41 7 -43 2 -2 34 7 72 21 96 35 161 42
207 23 30 -13 36 -20 36 -46 0 -59 -115 -153 -235 -190 -52 -16 -57 -22 -50
-53 7 -26 8 -27 79 -21 81 7 122 -5 135 -38 17 -46 -43 -115 -138 -159 -50
-23 -51 -25 -48 -64 2 -38 3 -40 46 -47 55 -9 71 -23 71 -60 0 -34 -41 -78
-100 -108 -33 -17 -39 -26 -52 -80 l-15 -61 28 -14 c60 -31 42 -88 -42 -133
-36 -18 -50 -35 -77 -88 -30 -60 -32 -67 -18 -83 9 -10 16 -23 16 -29 0 -21
-60 -80 -98 -95 -22 -9 -53 -34 -74 -62 -36 -45 -36 -47 -20 -75 32 -55 -22
-109 -152 -149 -40 -12 -90 -38 -124 -64 -219 -165 -488 -286 -747 -333 -96
-17 -264 -18 -3780 -19 l-3680 0 -105 23 c-274 62 -534 178 -733 330 -37 28
-81 50 -124 63 -85 24 -155 67 -167 102 -8 22 -6 31 12 50 l22 23 -34 40 c-23
27 -48 43 -80 53 -49 14 -123 63 -133 86 -10 28 6 62 37 75 l29 12 -23 47
c-21 40 -32 50 -81 70 -31 13 -70 35 -86 48 -50 43 -34 102 34 118 37 10 39
17 26 67 -11 40 -16 45 -82 78 -71 35 -121 87 -115 118 5 26 52 52 106 59 49
5 52 7 52 35 0 25 -7 31 -55 53 -79 35 -141 82 -160 122 -15 31 -15 36 -1 58
25 37 96 44 209 19 25 -6 27 -4 27 29 0 33 -2 35 -46 46 -109 28 -242 117
-265 178 -21 55 42 92 128 78 46 -8 150 -44 179 -62 19 -12 22 -11 28 9 3 13
6 38 6 56 0 31 -1 32 -43 32 -91 0 -239 62 -302 127 -68 70 -69 115 -4 134 74
23 246 -28 325 -94 18 -15 34 -27 36 -27 3 0 11 53 17 118 9 86 10 148 2 237
-6 66 -13 165 -16 220 -3 55 -8 133 -11 172 -6 72 -6 73 -27 58 -91 -64 -407
108 -407 221 0 45 26 58 103 51 103 -9 259 -101 308 -181 l19 -31 0 35 c0 19
-3 72 -6 116 -7 79 -7 81 -25 63 -24 -24 -56 -24 -121 2 -219 86 -370 351
-186 326 98 -13 252 -130 303 -230 l27 -52 -6 85 c-3 47 -6 109 -6 138 0 49
-1 52 -19 42 -34 -18 -77 -11 -148 25 -138 69 -263 218 -235 280 29 63 145 36
268 -63 32 -26 76 -72 98 -102 l38 -55 -6 70 c-3 39 -6 95 -6 126 l0 57 -45
-6 c-37 -4 -57 1 -112 28 -86 43 -196 150 -214 209 -29 96 34 118 157 56 71
-35 159 -110 195 -167 l21 -33 -6 79 c-3 43 -6 113 -7 155 0 56 -3 70 -9 54
-8 -19 -17 -23 -57 -23 -58 0 -109 23 -189 83 -63 48 -127 131 -138 179 -10
43 25 72 76 65 96 -13 244 -124 293 -220 l27 -52 -8 150 c-6 132 -9 154 -30
185 -72 112 -76 361 -6 399 27 14 64 0 85 -32 32 -49 59 -151 60 -227 2 -97
-7 -141 -39 -175 l-25 -27 10 -226 c6 -125 13 -339 17 -477 l7 -249 17 52 c19
56 73 143 115 182 22 21 36 68 18 58 -51 -26 -88 -38 -104 -33 -75 24 -30 175
92 309 66 71 83 118 27 70 -136 -114 -205 -30 -115 140 30 57 110 148 154 177
27 17 23 -15 108 845 8 83 16 155 17 160 9 35 7 -374 -2 -511z m-628 -2145
c151 -47 302 -187 268 -250 -44 -82 -331 21 -417 149 -31 45 -31 99 0 111 36
14 80 11 149 -10z m10816 4 c68 -47 -25 -167 -190 -244 -107 -50 -208 -53
-229 -6 -31 68 97 187 261 243 77 27 127 29 158 7z m-10765 -325 c177 -70 296
-204 225 -253 -32 -23 -92 -19 -171 8 -88 31 -156 76 -213 139 -36 40 -44 56
-42 81 6 60 87 70 201 25z m9230 -350 c20 -17 37 -39 37 -50 0 -26 -26 -24
-33 2 -4 15 -11 20 -23 15 -9 -4 -27 0 -40 9 -21 13 -22 18 -12 35 17 27 27
25 71 -11z m-7865 -15 c37 -10 23 -39 -18 -39 -28 0 -35 -4 -35 -20 0 -10 -12
-26 -27 -34 -24 -14 -28 -14 -47 3 -30 28 -26 42 22 70 43 26 65 30 105 20z
m7815 -45 c36 -30 48 -61 27 -74 -6 -3 -15 6 -20 20 -7 19 -15 25 -26 21 -19
-7 -54 10 -54 27 0 13 19 37 30 37 3 0 22 -14 43 -31z m-7730 -56 c4 -3 7 -12
5 -21 -2 -13 -12 -16 -40 -14 -32 3 -36 1 -31 -17 4 -14 -3 -24 -27 -36 -30
-15 -32 -15 -50 7 -11 13 -19 28 -20 34 0 6 23 22 52 37 47 25 80 27 111 10z
m81 -85 c15 -18 53 -59 83 -91 54 -56 55 -59 38 -77 -10 -11 -24 -20 -32 -20
-8 0 -39 27 -70 60 -30 33 -58 60 -62 60 -3 0 -19 -11 -36 -24 l-30 -25 50
-51 c40 -41 48 -54 39 -67 -26 -42 -40 -39 -95 21 l-54 57 -64 -47 c-67 -50
-79 -51 -108 -8 -12 19 -3 27 138 132 84 62 157 112 163 112 6 0 24 -15 40
-32z m7675 -34 c108 -31 200 -60 206 -65 6 -6 -1 -19 -18 -36 -26 -26 -28 -27
-74 -14 l-48 12 -47 -53 -46 -53 19 -31 c10 -17 19 -38 19 -46 0 -7 -59 -67
-131 -132 -116 -104 -133 -116 -147 -103 -10 7 -75 65 -145 127 l-128 114 30
29 29 30 112 -99 c61 -54 116 -100 123 -102 7 -1 41 24 77 57 l65 59 28 -20
c15 -11 27 -17 27 -14 0 3 -46 79 -103 169 l-104 163 26 32 c14 17 28 32 30
32 2 0 92 -25 200 -56z m-7396 -233 c48 -40 87 -77 87 -82 0 -5 -11 -16 -25
-25 -27 -18 -20 -22 -144 83 -33 28 -43 28 -70 -1 l-22 -24 70 -58 c39 -32 71
-60 71 -63 0 -10 -34 -41 -46 -41 -7 0 -43 25 -79 56 l-67 57 -34 -34 -34 -34
75 -64 c41 -34 75 -65 75 -69 0 -9 -33 -42 -42 -42 -16 0 -218 172 -218 186 0
7 11 21 25 32 13 11 74 67 136 126 110 104 112 105 133 88 12 -9 61 -50 109
-91z m152 -127 c14 -9 25 -20 25 -25 0 -4 -43 -56 -95 -115 -52 -58 -95 -110
-95 -115 0 -4 31 -29 70 -56 38 -26 70 -53 70 -59 0 -6 -9 -19 -20 -29 -20
-18 -22 -17 -121 50 -55 38 -105 75 -110 81 -7 9 23 50 108 147 65 75 124 136
131 136 7 1 24 -6 37 -15z m6770 -98 c98 -51 181 -98 183 -104 1 -5 -10 -19
-27 -31 l-30 -21 -44 21 -44 22 -61 -42 -62 -41 17 -42 c18 -44 15 -49 -40
-79 -19 -11 -14 -22 -70 136 -60 168 -79 226 -76 229 2 1 17 12 33 24 16 12
31 22 35 22 3 0 87 -42 186 -94z m-295 -124 l0 -119 45 -59 c24 -32 45 -64 45
-70 0 -6 -12 -17 -27 -25 -16 -7 -31 -15 -35 -17 -3 -2 -26 25 -51 60 -45 62
-46 63 -169 113 -67 27 -123 54 -123 58 0 4 17 18 37 29 l37 22 82 -37 82 -37
-7 79 c-7 78 -7 79 21 99 15 12 36 22 46 22 15 0 17 -12 17 -118z m-6226 55
l29 -24 -108 -142 c-59 -78 -112 -144 -116 -147 -11 -7 -69 24 -69 37 0 13
218 299 228 299 4 0 20 -11 36 -23z m174 -102 c99 -56 124 -83 124 -129 0
-105 -117 -149 -228 -86 l-52 29 -38 -47 c-21 -26 -41 -51 -45 -55 -8 -10 -69
19 -69 33 0 14 211 300 221 300 6 0 45 -20 87 -45z m5823 -168 c90 -62 164
-117 166 -123 2 -6 -14 -19 -36 -29 -40 -17 -40 -17 -72 8 l-33 25 -67 -34
-68 -34 9 -32 c13 -45 9 -77 -7 -71 -7 3 -24 -2 -38 -11 -13 -9 -26 -12 -29
-8 -8 13 -46 205 -42 211 2 3 -4 43 -14 88 l-18 82 32 21 c17 11 36 20 43 20
7 0 85 -51 174 -113z m-5483 -3 c67 -31 122 -62 122 -69 0 -7 -9 -20 -20 -30
-19 -17 -21 -17 -62 1 -24 10 -54 27 -68 36 -40 29 -81 28 -96 -2 -13 -24 -12
-25 77 -67 l90 -43 -18 -30 c-9 -16 -22 -30 -28 -30 -6 0 -38 13 -71 29 -96
46 -99 46 -122 6 l-21 -35 74 -34 c41 -19 84 -37 95 -41 23 -7 25 -32 5 -58
-12 -17 -18 -18 -51 -7 -20 7 -72 30 -115 51 -43 22 -85 39 -93 39 -7 0 -19 6
-25 14 -13 15 -15 10 116 231 60 101 64 107 76 102 7 -3 67 -31 135 -63z
m5017 -70 c9 -14 13 -29 8 -34 -4 -4 -46 -22 -93 -40 -47 -18 -86 -34 -88 -35
-6 -5 22 -55 30 -55 5 0 45 14 90 32 l80 32 19 -25 c10 -13 19 -29 19 -34 0
-6 -28 -21 -62 -34 -35 -14 -75 -29 -90 -35 l-26 -11 17 -35 c19 -39 31 -41
98 -9 24 10 48 19 53 19 6 0 24 7 40 15 29 15 30 14 45 -15 9 -17 13 -34 11
-39 -3 -5 -50 -25 -103 -46 -54 -20 -115 -44 -136 -53 -38 -16 -39 -15 -58 9
-10 13 -19 27 -19 31 0 3 -29 67 -65 141 -36 74 -65 138 -65 142 0 3 17 13 38
22 44 19 224 83 233 83 4 0 14 -12 24 -26z m-4669 -70 c30 -8 30 -18 -2 -88
-14 -32 -24 -58 -23 -59 2 -1 24 -9 49 -18 25 -9 52 -19 61 -23 13 -6 23 7 48
59 27 59 33 66 53 60 13 -4 31 -9 41 -11 19 -6 22 -35 7 -62 -11 -19 -81 -172
-112 -244 -14 -32 -26 -48 -39 -48 -24 0 -69 21 -69 32 0 5 13 37 29 72 l29
64 -48 21 c-76 33 -83 30 -118 -48 l-31 -69 -37 11 c-44 13 -52 30 -32 71 42
89 59 128 88 196 38 88 48 103 68 95 7 -3 25 -8 38 -11z m4335 -87 c18 -12 47
-44 64 -71 26 -42 30 -59 30 -118 0 -67 -1 -71 -36 -103 -26 -23 -65 -42 -134
-64 -98 -31 -115 -32 -115 -5 0 8 -9 31 -20 51 -11 21 -20 42 -20 48 0 5 -18
54 -40 108 -22 53 -40 103 -40 110 0 20 154 66 221 66 42 1 64 -5 90 -22z
m-4003 -27 c44 -1 44 -13 0 -144 -45 -139 -45 -149 7 -175 19 -9 36 -11 54 -5
26 10 35 28 88 189 14 44 28 82 30 84 7 10 83 -21 83 -34 0 -20 -66 -218 -82
-246 -27 -49 -51 -68 -93 -75 -54 -8 -143 17 -184 52 -48 40 -48 72 -1 220 49
150 48 147 67 140 8 -3 22 -6 31 -6z m3453 -142 c28 -35 69 -83 89 -108 91
-109 120 -145 120 -152 0 -4 -19 -12 -42 -19 -42 -11 -43 -10 -75 25 l-33 36
-68 -16 c-37 -10 -69 -18 -71 -20 -1 -1 -5 -20 -8 -41 -3 -21 -10 -41 -17 -45
-16 -11 -76 -21 -82 -15 -3 3 1 56 10 119 9 62 19 149 24 193 l7 79 40 12 c22
7 43 13 47 13 4 1 31 -27 59 -61z m-2935 8 c14 -13 70 -358 62 -381 -4 -11
-55 -7 -80 6 -10 6 -18 21 -18 37 0 43 -13 53 -85 68 -73 15 -75 15 -106 -39
-9 -15 -18 -17 -52 -12 -23 4 -46 11 -51 15 -4 5 11 33 35 63 24 30 66 84 93
118 123 158 112 148 154 142 20 -3 42 -11 48 -17z m2664 -86 c9 -41 25 -113
34 -160 9 -47 19 -95 22 -107 5 -19 1 -23 -30 -28 -53 -10 -63 -3 -70 57 -4
29 -12 75 -19 103 l-12 50 -7 -45 c-3 -25 -7 -72 -7 -105 -1 -33 -5 -65 -9
-71 -4 -7 -25 -14 -46 -15 l-40 -4 -52 105 c-29 58 -53 102 -54 99 0 -4 9 -51
20 -104 11 -53 20 -101 20 -105 0 -8 -80 -24 -86 -17 -2 2 -13 51 -24 108 -11
57 -27 137 -35 178 -8 41 -14 75 -12 76 9 7 121 24 128 19 5 -2 30 -47 56 -99
50 -100 61 -104 62 -20 1 22 4 63 7 91 l6 51 47 10 c80 18 82 17 101 -67z
m-2392 44 c18 -5 22 -14 23 -48 0 -22 6 -75 13 -116 l12 -75 29 65 c17 35 39
83 50 105 l20 40 60 -3 c33 -2 63 -7 67 -11 9 -8 -48 -351 -61 -364 -9 -9 -81
1 -81 12 0 3 7 47 15 96 8 50 15 95 14 100 0 6 -22 -35 -48 -90 l-49 -101 -41
4 c-22 2 -41 5 -42 6 0 0 -8 55 -18 121 l-17 120 -13 -100 c-16 -126 -22 -138
-64 -130 -18 4 -36 10 -40 14 -4 5 -1 41 7 82 9 41 20 108 26 149 18 136 15
130 68 130 26 0 57 -3 70 -6z m539 -67 c1 -7 12 -39 23 -72 49 -141 98 -301
93 -307 -5 -10 -74 -10 -90 0 -6 4 -14 24 -18 44 -7 35 -9 37 -54 43 -25 3
-59 8 -76 10 -26 4 -32 0 -50 -33 -21 -39 -51 -50 -101 -38 l-24 6 36 63 c19
34 43 78 52 97 9 19 20 37 23 40 3 3 23 38 45 77 l39 73 48 0 c36 0 46 3 41
13 -4 6 -3 8 1 4 5 -4 10 -13 12 -20z m1337 4 c30 -14 54 -33 73 -62 25 -37
28 -52 28 -119 0 -69 -3 -80 -29 -114 -37 -50 -85 -69 -172 -70 -63 0 -76 3
-112 28 -60 41 -85 99 -80 185 3 53 9 74 28 98 54 68 174 92 264 54z m-1009
-128 l70 -117 9 112 c9 122 10 123 74 106 26 -8 27 -10 10 -221 l-11 -153 -44
0 c-42 0 -44 1 -86 68 -24 37 -54 87 -68 111 l-24 44 -7 -44 c-3 -24 -7 -72
-7 -106 l-1 -63 -46 0 -46 0 6 128 c4 70 9 155 12 190 l6 62 41 0 42 0 70
-117z m636 94 c58 -39 75 -102 42 -157 -20 -35 -70 -57 -145 -66 l-58 -6 0
-64 0 -64 -44 0 c-42 0 -44 2 -49 33 -3 17 -9 100 -13 184 -8 177 -21 160 132
162 90 1 105 -2 135 -22z m579 -815 c0 -5 -24 -29 -54 -55 -43 -37 -62 -47
-90 -47 -20 0 -36 3 -36 6 0 3 12 28 28 55 l27 49 63 0 c34 0 62 -4 62 -8z
m-9 -139 c105 -34 169 -133 169 -262 0 -128 -57 -223 -156 -260 -96 -37 -236
-22 -304 31 -95 75 -125 245 -64 373 53 112 211 164 355 118z m-3021 -193 l0
-200 125 0 125 0 0 -70 0 -70 -210 0 -210 0 0 270 0 270 85 0 85 0 0 -200z
m720 13 c37 -100 82 -220 99 -267 l31 -86 -89 0 -89 0 -14 43 -15 42 -88 0
-88 0 -14 -42 -15 -43 -84 0 c-46 0 -84 3 -84 6 0 6 61 176 115 319 15 39 39
103 53 143 l27 73 93 -3 94 -3 68 -182z m590 12 c0 -108 4 -183 11 -199 15
-31 59 -50 98 -41 56 12 61 30 61 232 l0 183 86 0 85 0 -3 -207 -3 -208 -28
-41 c-40 -60 -95 -87 -188 -92 -98 -6 -171 12 -216 51 -64 56 -67 70 -71 295
l-4 202 86 0 86 0 0 -175z m695 39 l90 -135 5 133 5 133 83 3 82 3 0 -271 0
-270 -83 0 -82 0 -90 134 -90 135 -3 -135 -3 -134 -84 0 -85 0 0 263 c0 145 3
267 7 270 3 4 40 7 82 7 l76 0 90 -136z m543 -136 l2 -268 -85 0 c-81 0 -85 1
-85 23 -1 201 -1 486 -1 500 1 16 10 17 84 15 l82 -3 3 -267z m979 128 l93
-139 0 142 0 141 80 0 80 0 0 -270 0 -270 -80 0 -80 0 -92 137 -93 138 -3
-137 -3 -138 -79 0 -80 0 0 270 0 271 82 -3 81 -3 94 -139z"/>
<path d="M6251 12424 c-74 -52 -64 -218 15 -244 47 -16 98 2 113 38 54 137
-31 274 -128 206z"/>
<path d="M3310 12305 l0 -125 44 0 c61 0 85 22 93 87 13 111 -17 163 -92 163
l-45 0 0 -125z"/>
<path d="M4956 12332 c-22 -81 -22 -82 24 -82 24 0 40 5 40 12 0 23 -33 128
-40 128 -4 0 -15 -26 -24 -58z"/>
<path d="M8620 12447 c-3 -3 -4 -26 -2 -51 4 -46 4 -46 41 -46 20 0 42 5 49
12 16 16 15 53 -2 67 -16 13 -78 26 -86 18z"/>
<path d="M9728 11986 l-27 -34 22 -20 c52 -47 100 -51 112 -10 5 15 -3 30 -31
59 -21 21 -41 39 -44 39 -3 0 -17 -15 -32 -34z"/>
<path d="M1626 11519 c-58 -45 -55 -51 61 -128 l107 -70 23 37 c12 20 23 45
23 54 0 42 -111 128 -167 128 -11 0 -32 -9 -47 -21z"/>
<path d="M10194 11258 c-78 -53 -91 -106 -38 -163 29 -32 71 -33 131 -3 83 42
110 96 78 157 -27 54 -99 57 -171 9z"/>
<path d="M1303 10760 c-54 -22 -73 -102 -33 -145 26 -28 99 -55 148 -55 48 0
92 46 92 95 0 47 -32 79 -101 99 -59 18 -74 19 -106 6z"/>
<path d="M10546 10698 c-25 -9 -27 -14 -22 -41 10 -51 34 -79 64 -75 31 4 37
21 27 84 -7 47 -15 51 -69 32z"/>
<path d="M5632 9400 c-81 -49 -84 -197 -6 -259 38 -30 106 -37 159 -16 55 21
84 60 92 124 7 65 -23 132 -71 155 -48 23 -133 21 -174 -4z m139 -67 c21 -25
18 -107 -5 -132 -24 -26 -60 -27 -86 -1 -26 26 -28 105 -3 132 20 23 76 24 94
1z"/>
<path d="M5930 9270 l0 -150 120 0 120 0 0 35 0 35 -75 0 -75 0 0 115 0 115
-45 0 -45 0 0 -150z"/>
<path d="M6273 9380 c-42 -25 -64 -69 -65 -130 -3 -102 51 -155 157 -155 82 0
119 26 140 100 36 122 -26 205 -152 205 -30 0 -60 -7 -80 -20z m128 -60 c15
-9 19 -22 19 -65 0 -82 -44 -117 -98 -79 -17 12 -22 25 -22 62 0 78 43 113
101 82z"/>
<path d="M5395 9383 c-34 -8 -35 -16 -16 -91 11 -39 17 -72 14 -72 -3 0 -36
27 -74 61 -66 58 -70 61 -109 54 -48 -8 -48 -9 -15 -135 14 -52 30 -111 36
-132 9 -36 9 -36 47 -26 20 6 38 11 40 13 2 2 -4 31 -13 65 -9 34 -14 67 -13
72 2 6 34 -16 72 -49 67 -60 68 -60 107 -51 26 7 39 16 38 27 0 9 -15 72 -33
141 -33 127 -37 134 -81 123z"/>
<path d="M6670 9292 c-48 -25 -93 -112 -87 -165 7 -54 30 -83 88 -112 40 -21
62 -25 111 -23 l60 3 23 58 24 58 -42 18 c-72 31 -89 34 -98 20 -16 -26 -9
-47 17 -53 36 -9 24 -30 -19 -34 -41 -4 -77 24 -77 58 0 35 27 88 54 105 22
15 31 15 56 5 16 -7 32 -21 35 -31 4 -10 18 -22 33 -25 15 -3 33 -7 40 -10 18
-5 15 47 -4 74 -39 56 -155 86 -214 54z"/>
<path d="M4945 9241 c-66 -30 -90 -64 -90 -124 1 -136 101 -208 217 -155 56
26 88 69 88 118 0 19 -5 21 -42 18 -38 -3 -43 -6 -46 -30 -7 -59 -72 -65 -109
-9 -31 46 -30 96 2 117 21 14 30 14 54 4 24 -10 33 -9 55 5 34 22 33 37 -3 58
-37 22 -76 21 -126 -2z"/>
<path d="M6938 9073 c-54 -136 -55 -138 -34 -149 61 -33 60 -35 115 103 28 70
51 133 51 139 0 8 -60 44 -74 44 -2 0 -28 -62 -58 -137z"/>
<path d="M4640 9109 c-58 -28 -106 -52 -108 -54 -5 -4 121 -265 128 -265 12 0
220 100 220 106 0 5 -19 45 -25 52 -2 2 -33 -12 -70 -30 -65 -32 -67 -33 -81
-14 -8 11 -14 23 -14 28 0 4 27 21 60 38 64 32 67 36 47 64 -12 16 -16 16 -67
-8 -30 -14 -60 -26 -66 -26 -10 0 -24 21 -24 35 0 2 29 18 65 36 67 33 74 43
53 72 -12 15 -23 12 -118 -34z"/>
<path d="M7185 9052 c-28 -26 -79 -73 -114 -105 -60 -55 -62 -59 -45 -72 32
-25 64 -29 81 -12 15 14 20 14 63 -8 41 -21 47 -28 43 -49 -4 -21 1 -28 36
-46 49 -24 45 -31 60 110 7 58 14 123 17 145 6 39 5 40 -40 63 -26 12 -48 22
-49 22 -1 0 -25 -22 -52 -48z m61 -69 c-2 -10 -7 -33 -11 -50 -7 -36 -12 -39
-37 -19 -24 18 -23 25 9 58 30 32 47 36 39 11z"/>
<path d="M5765 9004 c-338 -37 -581 -104 -850 -234 -437 -213 -820 -592 -1039
-1027 -87 -174 -126 -281 -190 -513 -62 -231 -79 -619 -38 -877 42 -258 102
-451 212 -679 223 -460 592 -831 1055 -1059 215 -106 396 -165 650 -212 82
-15 150 -18 375 -18 244 0 288 3 395 23 499 96 921 322 1265 678 681 706 841
1768 401 2645 -341 678 -973 1135 -1736 1254 -97 15 -420 27 -500 19z m387
-29 c402 -40 727 -158 1073 -388 400 -266 736 -711 882 -1167 95 -295 117
-457 110 -794 -5 -257 -18 -349 -81 -572 -24 -84 -33 -109 -85 -244 -95 -247
-302 -552 -518 -761 -187 -182 -349 -296 -583 -413 -222 -110 -400 -167 -660
-211 -146 -25 -169 -27 -395 -22 -262 5 -371 20 -575 78 -715 203 -1286 733
-1538 1429 -199 549 -179 1162 55 1699 168 388 451 732 798 972 310 214 679
351 1060 392 175 19 282 20 457 2z"/>
<path d="M7197 7975 c-85 -29 -106 -60 -132 -195 -26 -135 -28 -157 -16 -179
8 -13 8 -21 2 -21 -20 0 -62 -106 -95 -235 -17 -67 -13 -77 50 -116 32 -19 32
-21 19 -52 -18 -46 -18 -175 1 -299 l16 -108 42 -12 c44 -14 193 -17 238 -5
22 6 28 15 33 45 4 20 13 66 22 102 22 90 25 220 7 272 -18 51 -18 48 9 48 49
0 59 20 66 126 4 54 6 108 5 119 -1 11 -2 37 -3 57 0 20 -7 43 -14 50 -14 14
-28 72 -52 212 -23 132 -50 170 -136 196 -15 4 -41 2 -62 -5z m100 -107 c21
-40 23 -70 8 -101 -4 -6 3 0 15 16 25 31 35 34 44 11 3 -9 -4 -24 -17 -38 -30
-30 -57 -72 -57 -89 0 -8 7 -20 15 -27 9 -7 15 -29 15 -52 0 -36 -2 -40 -20
-35 -16 4 -28 -6 -58 -51 -20 -32 -43 -69 -50 -84 -8 -16 -18 -28 -22 -28 -11
0 -20 54 -20 117 0 34 -4 52 -10 48 -22 -14 0 37 33 72 l20 22 -31 36 c-24 26
-31 44 -31 73 1 54 8 72 27 71 11 0 12 -3 5 -6 -7 -2 -13 -11 -13 -18 0 -20
21 -30 31 -14 6 9 12 10 17 4 11 -15 42 -15 42 1 0 9 -11 14 -31 14 -16 0 -28
4 -24 9 3 6 -2 14 -10 18 -13 8 -12 12 8 32 20 18 56 35 87 40 3 1 15 -18 27
-41z m-62 -529 c27 -24 35 -39 33 -58 -3 -22 -7 -26 -33 -23 l-30 4 27 -21
c14 -12 31 -21 37 -21 18 0 13 -18 -8 -30 -27 -14 -58 -12 -106 5 -43 15 -47
29 -14 57 11 10 15 19 9 23 -15 10 -12 62 6 79 23 23 39 20 79 -15z"/>
<path d="M7245 7830 c-4 -7 3 -8 22 -4 38 9 42 14 10 14 -14 0 -29 -5 -32 -10z"/>
<path d="M7262 7803 c5 -25 28 -28 28 -4 0 12 -6 21 -16 21 -9 0 -14 -7 -12
-17z"/>
<path d="M7203 7703 c9 -2 23 -2 30 0 6 3 -1 5 -18 5 -16 0 -22 -2 -12 -5z"/>
<path d="M4636 7854 c10 -44 10 -44 95 -44 l79 0 0 -49 c0 -84 6 -81 -150 -81
-77 0 -141 -4 -144 -9 -3 -5 -17 -8 -31 -8 -21 0 -25 4 -25 27 0 15 -3 48 -6
74 -7 46 -7 46 -45 46 -38 0 -39 -1 -40 -37 l-2 -38 -7 40 c-6 31 -7 21 -8
-45 0 -56 2 -78 8 -65 7 17 9 17 9 3 1 -18 5 -20 51 -22 19 -1 25 -7 27 -26 0
-14 1 -31 2 -38 1 -9 15 -12 49 -10 40 3 47 6 50 26 4 29 22 36 67 28 35 -7
35 -7 35 -61 0 -30 -4 -57 -10 -60 -6 -4 -10 5 -10 19 0 19 -5 26 -20 26 -15
0 -20 -7 -20 -25 0 -20 -5 -25 -25 -25 -21 0 -25 -5 -25 -30 0 -16 5 -30 10
-30 6 0 10 -9 10 -20 0 -11 -4 -20 -10 -20 -5 0 -10 -13 -10 -30 l0 -30 108 0
c101 0 108 1 109 20 1 11 -5 32 -12 47 -13 24 -13 29 0 36 25 14 18 47 -13 58
-27 9 -28 13 -25 61 1 28 5 53 7 56 11 11 36 -9 36 -28 0 -18 5 -21 33 -18 27
3 32 7 35 33 4 27 32 81 32 60 0 -6 5 -3 10 5 12 19 13 117 1 125 -5 3 -12 -5
-14 -17 -4 -20 -4 -19 -6 5 0 15 -5 27 -11 27 -5 0 -10 8 -10 19 0 30 -20 39
-108 46 l-83 8 7 -29z m37 -434 c-3 -13 -14 -20 -29 -20 -17 0 -24 6 -24 20 0
15 7 20 29 20 24 0 28 -3 24 -20z"/>
<path d="M5310 7811 c0 -10 136 -62 169 -64 54 -4 25 20 -57 46 -93 29 -112
32 -112 18z"/>
<path d="M5625 7795 c17 -8 37 -14 45 -14 8 0 -1 7 -20 14 -46 18 -64 17 -25
0z"/>
<path d="M4610 7755 c0 -16 6 -25 15 -25 9 0 15 9 15 25 0 16 -6 25 -15 25 -9
0 -15 -9 -15 -25z"/>
<path d="M5698 7773 c6 -2 18 -2 25 0 6 3 1 5 -13 5 -14 0 -19 -2 -12 -5z"/>
<path d="M5291 7744 c0 -11 3 -14 6 -6 3 7 2 16 -1 19 -3 4 -6 -2 -5 -13z"/>
<path d="M5775 7742 c-3 -9 -3 -215 0 -457 6 -363 5 -443 -6 -456 -16 -19
-200 -51 -221 -38 -10 7 -12 100 -9 474 2 340 0 465 -8 465 -16 0 -16 -899 1
-935 8 -17 19 -25 36 -25 52 0 207 23 220 33 9 7 12 115 12 478 0 428 -5 513
-25 461z"/>
<path d="M5442 7680 c0 -14 2 -19 5 -12 2 6 2 18 0 25 -3 6 -5 1 -5 -13z"/>
<path d="M5608 7653 c18 -2 45 -2 60 0 15 2 0 4 -33 4 -33 0 -45 -2 -27 -4z"/>
<path d="M5670 7370 c-30 -11 -56 -20 -57 -20 -2 0 -3 -18 -3 -39 l0 -39 30
11 c22 8 38 8 60 0 l30 -11 0 59 c0 32 -1 59 -2 58 -2 0 -28 -9 -58 -19z"/>
<path d="M5291 7034 c0 -11 3 -14 6 -6 3 7 2 16 -1 19 -3 4 -6 -2 -5 -13z"/>
<path d="M5860 7007 c0 -15 46 -44 56 -35 3 3 -9 16 -25 28 -23 16 -31 18 -31
7z"/>
<path d="M6225 7000 c-3 -5 1 -10 10 -10 9 0 13 5 10 10 -3 6 -8 10 -10 10 -2
0 -7 -4 -10 -10z"/>
<path d="M6080 6981 c0 -8 90 -3 99 5 2 2 -19 4 -47 4 -29 0 -52 -4 -52 -9z"/>
<path d="M5442 6880 c0 -14 2 -19 5 -12 2 6 2 18 0 25 -3 6 -5 1 -5 -13z"/>
<path d="M5840 6886 c0 -2 7 -9 15 -16 9 -7 15 -8 15 -2 0 5 -7 12 -15 16 -8
3 -15 4 -15 2z"/>
<path d="M7340 6365 c-1 -5 -4 -35 -6 -65 -4 -54 -14 -70 -46 -70 -12 0 -18 8
-19 23 0 21 -1 21 -9 2 -5 -11 -9 -35 -9 -53 -1 -32 0 -33 36 -30 52 4 77 42
76 113 -1 46 -20 111 -23 80z"/>
<path d="M7215 6313 c-12 -50 -44 -85 -75 -81 -32 3 -60 -17 -60 -43 0 -29 74
-26 104 4 13 13 28 21 33 20 19 -7 32 110 14 121 -5 3 -12 -6 -16 -21z"/>
<path d="M4312 6248 c-16 -16 -15 -28 3 -28 8 0 15 9 15 20 0 23 -2 24 -18 8z"/>
<path d="M4636 6253 c-12 -12 -6 -33 9 -33 8 0 15 6 15 14 0 17 -14 28 -24 19z"/>
<path d="M4962 6238 c6 -18 28 -21 28 -4 0 9 -7 16 -16 16 -9 0 -14 -5 -12
-12z"/>
<path d="M6542 6057 c-7 -9 -8 -23 -3 -43 7 -22 9 -24 10 -8 1 12 8 27 16 34
8 7 12 16 9 21 -7 13 -20 11 -32 -4z"/>
<path d="M6620 6025 c13 -14 24 -25 25 -25 1 0 0 11 -3 25 -3 17 -11 25 -25
25 -20 0 -20 -1 3 -25z"/>
<path d="M6575 5970 c3 -5 8 -10 11 -10 2 0 4 5 4 10 0 6 -5 10 -11 10 -5 0
-7 -4 -4 -10z"/>
<path d="M6617 5974 c-16 -16 -7 -35 14 -29 33 11 86 -4 121 -33 l33 -27 -16
25 c-21 33 -55 50 -101 50 -20 0 -38 5 -40 11 -2 5 -7 7 -11 3z"/>
<path d="M6787 5846 c17 -103 -83 -191 -237 -210 -114 -14 -107 -9 -102 -75 4
-62 -9 -101 -47 -135 -58 -52 -1 -36 147 43 152 80 265 192 286 282 4 17 1 31
-8 38 -8 7 -17 27 -20 46 -9 45 -26 56 -19 11z m-63 -213 c-43 -52 -151 -115
-193 -111 -25 2 -36 9 -42 26 -8 20 -3 25 49 49 136 63 207 90 211 81 2 -5
-10 -25 -25 -45z"/>
<path d="M5050 5805 c-6 -16 -26 -33 -52 -45 -37 -17 -39 -20 -17 -20 31 0 85
25 117 53 30 28 28 37 -8 37 -23 0 -33 -6 -40 -25z"/>
<path d="M5910 5745 c0 -10 52 -25 63 -18 7 4 3 9 -9 14 -23 9 -54 11 -54 4z"/>
<path d="M6180 5740 c0 -5 6 -10 14 -10 8 0 18 5 21 10 3 6 -3 10 -14 10 -12
0 -21 -4 -21 -10z"/>
<path d="M6146 5705 c19 -30 26 -28 17 3 -3 12 -12 22 -19 22 -12 0 -11 -5 2
-25z"/>
<path d="M5390 5686 c0 -2 7 -7 16 -10 8 -3 12 -2 9 4 -6 10 -25 14 -25 6z"/>
<path d="M5510 5625 c0 -12 174 -96 229 -110 35 -9 93 -27 128 -40 77 -30 207
-55 277 -55 48 0 167 43 154 56 -3 2 -39 -1 -79 -7 -141 -22 -377 21 -572 105
-74 32 -137 56 -137 51z"/>
<path d="M6264 5345 c-10 -8 -14 -15 -8 -15 5 0 19 7 30 15 10 8 14 15 8 15
-5 0 -19 -7 -30 -15z"/>
<path d="M6161 5289 c-23 -9 -24 -11 -8 -27 20 -19 50 -7 55 22 4 18 -11 20
-47 5z"/>
<path d="M5939 5266 c14 -17 49 -27 56 -16 3 4 -9 13 -27 19 -40 14 -43 14
-29 -3z"/>
<path d="M6108 5248 c7 -7 12 -27 12 -45 0 -27 4 -33 20 -33 18 0 19 3 9 21
-6 12 -9 32 -6 45 4 20 0 24 -21 24 -20 0 -23 -3 -14 -12z"/>
<path d="M4342 8925 c-61 -41 -112 -79 -112 -84 0 -5 9 -19 19 -32 l19 -24 31
23 c16 12 35 22 40 22 6 0 38 -40 71 -90 l60 -90 35 23 c19 12 35 26 35 30 0
5 -24 43 -53 85 -29 42 -56 82 -60 89 -5 8 5 21 27 35 40 26 43 34 18 66 l-17
22 -113 -75z"/>
<path d="M7700 8735 l-24 -25 32 -33 32 -33 -77 -83 -77 -83 33 -30 34 -30 77
83 78 84 36 -34 36 -35 25 24 26 24 -98 98 c-54 54 -100 98 -104 98 -3 0 -16
-11 -29 -25z"/>
<path d="M3857 8482 c-15 -15 -27 -33 -27 -39 0 -10 117 -271 127 -282 2 -3
18 9 35 27 28 27 30 34 21 55 -10 22 -7 29 27 62 34 33 40 36 60 25 20 -11 26
-8 53 19 20 19 28 34 22 40 -14 12 -263 121 -278 121 -7 0 -25 -13 -40 -28z
m112 -84 c20 -12 38 -23 40 -25 5 -4 -30 -43 -39 -43 -5 0 -24 32 -48 83 -6
13 9 8 47 -15z"/>
<path d="M7885 8429 c-137 -110 -129 -98 -96 -139 l29 -34 45 37 c25 20 48 37
50 37 16 0 13 -37 -9 -90 l-25 -62 26 -34 c14 -19 30 -34 34 -34 11 0 51 93
51 120 0 17 3 19 19 10 11 -5 29 -10 41 -10 30 0 80 53 80 84 0 24 -114 186
-135 192 -6 2 -55 -33 -110 -77z m148 -62 c17 -22 18 -29 7 -42 -18 -22 -36
-19 -59 12 -20 25 -20 27 -4 45 20 22 31 20 56 -15z"/>
<path d="M3680 8260 c-12 -17 -20 -34 -18 -40 4 -12 215 -170 227 -170 9 0 51
52 51 64 0 7 -224 176 -233 176 -3 0 -15 -14 -27 -30z"/>
<path d="M8087 8127 l-147 -32 26 -38 c21 -32 30 -38 49 -33 20 5 29 -1 54
-37 28 -41 28 -44 14 -68 -15 -24 -14 -28 7 -58 13 -17 26 -31 29 -31 9 0 186
240 184 248 -4 20 -49 82 -58 81 -5 0 -76 -15 -158 -32z m113 -65 c0 -5 -14
-21 -30 -37 -29 -28 -30 -28 -45 -9 -20 27 -19 31 13 42 34 13 62 15 62 4z"/>
<path d="M3594 8101 c-36 -22 -71 -75 -80 -120 -16 -79 74 -171 167 -171 40 0
55 6 84 31 61 54 80 115 53 174 -14 30 -21 31 -60 4 -21 -15 -26 -25 -19 -32
16 -16 13 -63 -5 -81 -8 -9 -25 -16 -37 -16 -27 0 -83 38 -98 67 -18 34 2 72
42 80 22 4 35 15 44 37 7 17 11 34 9 38 -9 15 -69 8 -100 -11z"/>
<path d="M8260 7845 c-69 -30 -129 -56 -134 -58 -11 -4 80 -199 101 -214 42
-32 123 -1 123 46 0 17 5 18 40 14 50 -7 80 16 80 61 0 31 -67 206 -79 206 -3
-1 -62 -25 -131 -55z m131 -82 c13 -35 4 -55 -23 -51 -29 4 -49 55 -28 68 25
16 40 11 51 -17z m-106 -43 c19 -37 11 -70 -15 -70 -18 0 -50 44 -50 68 0 7
28 26 47 31 1 1 10 -13 18 -29z"/>
<path d="M3415 7764 c-8 -20 -15 -37 -15 -39 0 -1 32 -14 70 -29 63 -25 83
-46 44 -46 -8 0 -47 -7 -85 -16 -64 -14 -72 -19 -87 -50 -10 -21 -12 -38 -6
-44 8 -8 248 -110 260 -110 5 0 34 64 34 74 0 2 -31 17 -70 32 -38 15 -70 29
-70 30 0 4 60 20 131 34 53 10 57 13 72 51 l16 39 -37 16 c-67 28 -232 94
-237 94 -3 0 -12 -16 -20 -36z"/>
<path d="M8264 7478 c9 -35 17 -44 37 -46 22 -3 28 -11 38 -54 11 -47 10 -52
-10 -66 -17 -12 -20 -21 -14 -51 4 -20 9 -39 11 -43 3 -4 64 32 135 79 l130
87 -6 35 c-13 67 -12 66 -167 84 -79 10 -148 17 -155 17 -9 0 -9 -10 1 -42z
m200 -84 c-51 -31 -64 -30 -64 4 0 26 1 27 52 23 l52 -3 -40 -24z"/>
<path d="M3265 7373 c-4 -26 -11 -72 -16 -102 -17 -102 -24 -95 109 -115 64
-9 129 -20 144 -22 22 -5 28 -1 32 18 9 47 35 222 33 224 -1 2 -15 4 -32 6
-32 3 -32 3 -50 -115 -6 -36 -8 -38 -33 -32 -15 4 -28 8 -30 10 -2 1 2 31 7
66 11 66 6 79 -31 79 -12 0 -19 -16 -28 -70 -10 -57 -15 -70 -30 -70 -28 0
-30 10 -18 84 6 36 9 68 7 70 -2 3 -16 7 -31 11 -25 7 -27 5 -33 -42z"/>
<path d="M8401 7196 c-34 -19 -50 -54 -51 -109 0 -43 4 -53 35 -84 l36 -36 91
7 c50 3 104 6 120 6 28 0 29 1 26 47 l-3 47 -65 -4 c-148 -9 -165 -7 -168 18
-3 17 2 25 18 29 19 5 21 10 15 42 -11 57 -14 59 -54 37z"/>
<path d="M3217 7088 c-16 -58 -11 -65 56 -77 143 -25 217 -34 223 -29 3 4 8
24 11 45 l5 39 -118 18 c-66 10 -131 20 -145 23 -21 4 -27 0 -32 -19z"/>
<path d="M3390 6894 c-15 -38 -12 -50 15 -68 29 -19 34 -66 8 -87 -9 -8 -39
-14 -70 -14 -43 0 -58 4 -69 19 -20 28 -17 62 6 79 16 11 19 21 14 46 -9 45
-30 49 -66 14 -62 -63 -44 -194 33 -233 80 -41 191 -13 224 56 32 69 9 171
-46 199 -37 20 -38 19 -49 -11z"/>
<path d="M8440 6893 c-50 -26 -72 -74 -68 -150 3 -53 8 -67 33 -93 59 -61 173
-64 231 -6 58 58 55 172 -6 231 -26 25 -40 30 -93 33 -46 2 -71 -2 -97 -15z
m150 -93 c26 -26 25 -62 -1 -86 -25 -23 -107 -26 -132 -5 -25 20 -22 76 5 95
33 23 103 21 128 -4z"/>
<path d="M5749 4238 c-13 -18 -70 -94 -127 -168 -81 -104 -101 -136 -88 -138
10 -2 19 -2 20 0 10 13 214 316 220 326 15 25 -4 11 -25 -20z"/>
<path d="M5868 4230 c-39 -32 -68 -84 -68 -122 0 -18 4 -15 20 18 12 23 37 60
57 83 43 51 39 61 -9 21z"/>
<path d="M6420 4250 c-12 -7 -12 -12 -3 -21 10 -10 14 -9 19 5 8 22 2 27 -16
16z"/>
<path d="M6079 4234 c-14 -18 -22 -124 -9 -124 18 0 21 -78 5 -109 -8 -17 -11
-31 -6 -31 14 0 41 65 41 97 -1 15 -7 53 -14 83 -8 33 -10 64 -5 78 10 26 6
28 -12 6z"/>
<path d="M6201 4234 c0 -11 3 -14 6 -6 3 7 2 16 -1 19 -3 4 -6 -2 -5 -13z"/>
<path d="M6284 4188 c-61 -59 -104 -128 -118 -190 -8 -34 9 -38 18 -5 8 32 95
165 141 216 56 61 32 49 -41 -21z"/>
<path d="M5980 4227 c0 -22 -96 -171 -147 -227 -26 -29 -39 -48 -28 -42 32 16
119 112 147 162 25 43 47 120 34 120 -3 0 -6 -6 -6 -13z"/>
<path d="M6337 4088 c-4 -13 -31 -53 -62 -91 -65 -78 -56 -89 15 -18 33 33 51
60 56 85 7 41 0 60 -9 24z"/>
<path d="M10658 9923 c-24 -6 -23 -54 1 -84 16 -20 23 -22 47 -14 26 9 29 16
32 58 l3 47 -33 -1 c-18 -1 -41 -3 -50 -6z"/>
<path d="M10801 8881 c-16 -10 -10 -73 10 -97 14 -17 41 -18 57 -2 13 13 16
66 6 92 -7 17 -50 21 -73 7z"/>
<path d="M10626 8863 c-27 -4 -28 -6 -21 -51 12 -81 37 -105 76 -73 20 16 21
23 15 74 -8 61 -6 59 -70 50z"/>
<path d="M10894 7136 c-60 -26 -78 -79 -49 -136 20 -39 73 -54 146 -40 72 14
104 45 103 102 -2 61 -36 88 -112 88 -31 -1 -71 -7 -88 -14z"/>
<path d="M10805 5366 c3 -27 5 -59 5 -72 0 -17 10 -29 38 -43 57 -30 140 -119
176 -192 l34 -67 6 45 c3 25 6 82 6 126 0 63 -3 78 -12 69 -39 -39 -155 37
-241 158 l-18 25 6 -49z"/>
<path d="M10857 4939 c3 -19 22 -46 44 -66 46 -42 106 -130 129 -191 l17 -44
6 47 c4 26 7 83 7 127 0 77 0 78 -21 67 -30 -15 -95 11 -139 56 -42 43 -51 44
-43 4z"/>
<path d="M10950 4526 c46 -62 77 -123 89 -173 7 -29 9 -5 10 97 1 124 0 133
-15 112 -19 -27 -39 -28 -86 -3 l-36 18 38 -51z"/>
<path d="M1000 4453 l1 -118 24 58 c13 32 40 80 60 106 44 60 45 77 5 56 -37
-19 -55 -19 -74 1 -15 14 -16 5 -16 -103z"/>
<path d="M11016 4265 c-11 -8 -30 -12 -47 -8 -25 5 -27 3 -22 -18 3 -13 11
-31 18 -39 7 -8 27 -42 43 -75 l31 -60 1 108 c0 59 -1 107 -2 107 -2 0 -11 -7
-22 -15z"/>
<path d="M1010 4170 l0 -105 34 70 c52 107 53 115 19 115 -16 0 -34 5 -41 12
-9 9 -12 -11 -12 -92z"/>
<path d="M1018 3854 c2 -69 6 -123 10 -119 4 3 12 55 18 113 9 93 8 109 -5
119 -9 7 -18 13 -21 13 -3 0 -4 -57 -2 -126z"/>
<path d="M11004 3968 c-24 -11 -24 -24 -1 -163 l11 -70 8 70 c5 39 7 93 6 121
-3 48 -4 51 -24 42z"/>
<path d="M1021 3094 c0 -11 3 -14 6 -6 3 7 2 16 -1 19 -3 4 -6 -2 -5 -13z"/>
<path d="M1012 2978 l-12 -93 36 -35 36 -35 -7 30 c-4 17 -13 72 -21 124 -8
52 -16 96 -17 98 -2 2 -9 -39 -15 -89z"/>
<path d="M11018 3054 c-7 -12 -16 -68 -23 -139 -4 -33 -9 -69 -12 -80 -4 -15
3 -12 31 14 l35 34 -6 76 c-6 75 -16 112 -25 95z"/>
<path d="M1065 2748 c-6 -15 -24 -26 -47 -32 -35 -9 -38 -12 -38 -47 0 -34 4
-39 53 -67 28 -16 62 -40 74 -51 l23 -21 -6 27 c-3 16 -15 70 -27 121 -19 79
-23 89 -32 70z"/>
<path d="M10954 2703 c-3 -32 -13 -78 -20 -103 -19 -64 -19 -64 34 -27 27 18
63 39 80 46 28 12 32 18 32 51 0 36 -2 38 -40 44 -21 3 -48 16 -59 27 l-19 21
-8 -59z"/>
<path d="M1145 2434 c-13 -21 -81 -34 -132 -27 -41 5 -43 4 -43 -20 0 -25 16
-37 51 -37 20 0 116 -44 163 -75 l29 -19 -9 24 c-4 14 -17 57 -29 97 -16 54
-23 68 -30 57z"/>
<path d="M10876 2383 c-10 -32 -24 -76 -32 -97 l-15 -39 34 25 c42 33 142 75
196 84 34 5 41 10 41 29 0 22 -3 23 -85 22 -66 -1 -88 3 -103 16 -18 17 -20
16 -36 -40z"/>
<path d="M1212 2150 c-30 -25 -101 -35 -163 -23 -53 11 -54 10 -38 -36 10 -27
15 -31 49 -31 61 0 140 -20 202 -51 l56 -28 -25 62 c-14 34 -31 77 -37 95 -13
37 -14 37 -44 12z"/>
<path d="M10769 2079 l-36 -88 39 20 c47 24 139 48 220 57 58 7 62 9 75 40
l14 34 -33 -9 c-18 -4 -68 -8 -110 -8 -62 0 -82 4 -105 21 l-28 21 -36 -88z"/>
<path d="M1336 1881 c-26 -28 -77 -41 -164 -41 l-73 0 16 -30 c14 -27 20 -30
66 -30 70 0 186 -28 236 -56 23 -13 44 -24 47 -24 3 0 -15 34 -39 75 -25 42
-45 79 -45 83 0 5 -6 16 -13 26 -12 16 -14 16 -31 -3z"/>
<path d="M10683 1888 c-4 -7 -14 -24 -21 -38 -7 -14 -27 -49 -43 -77 -32 -56
-31 -60 4 -41 45 23 165 48 239 48 76 0 78 1 93 30 8 16 15 31 15 33 0 3 -29
2 -64 0 -89 -8 -150 4 -185 33 -23 19 -31 21 -38 12z"/>
<path d="M1498 1619 c-5 -36 -66 -62 -149 -63 -61 -1 -66 -2 -53 -17 11 -12
40 -18 112 -22 55 -3 124 -13 159 -25 l61 -19 -55 76 c-73 99 -71 97 -75 70z"/>
<path d="M10503 1588 c-11 -18 -41 -59 -67 -91 l-47 -58 49 25 c69 35 159 56
239 56 54 0 74 4 86 18 15 16 11 17 -67 18 -83 1 -113 10 -152 46 -21 19 -21
19 -41 -14z"/>
<path d="M9828 2942 c9 -15 25 -38 34 -51 l17 -24 25 29 c14 16 26 32 26 36 0
7 -86 38 -107 38 -9 0 -8 -7 5 -28z"/>
<path d="M9330 2533 c0 -7 31 -95 36 -102 2 -1 19 9 39 24 l36 28 -50 28 c-53
31 -61 33 -61 22z"/>
<path d="M3042 2300 c-12 -16 -22 -34 -22 -40 0 -6 20 -20 45 -32 37 -18 48
-20 70 -10 39 18 34 56 -12 87 -48 32 -54 31 -81 -5z"/>
<path d="M8800 2215 c0 -25 24 -105 31 -105 16 0 69 30 69 39 0 4 -20 22 -44
39 -42 31 -56 37 -56 27z"/>
<path d="M7980 1921 c-14 -5 -24 -14 -22 -22 2 -12 72 -189 77 -196 5 -8 80
22 102 42 l28 23 -20 57 c-28 85 -48 105 -98 104 -23 -1 -53 -4 -67 -8z"/>
<path d="M7530 1704 l0 -56 33 7 c17 4 34 9 36 11 3 3 -60 94 -66 94 -2 0 -3
-25 -3 -56z"/>
<path d="M4581 1710 c-8 -14 -23 -35 -34 -47 -22 -24 -19 -27 36 -36 30 -5 31
0 18 68 l-7 40 -13 -25z"/>
<path d="M5391 1561 c-13 -24 -21 -44 -19 -46 2 -2 20 -6 41 -10 38 -7 38 -7
31 21 -4 16 -12 40 -19 53 l-13 25 -21 -43z"/>
<path d="M6683 1659 c-43 -13 -63 -44 -63 -101 0 -59 14 -90 50 -111 51 -30
118 -16 139 30 12 26 13 84 2 122 -13 47 -74 75 -128 60z"/>
<path d="M6272 1588 c3 -41 4 -43 38 -46 64 -4 109 37 80 73 -8 10 -31 15 -67
15 l-54 0 3 -42z"/>
<path d="M6865 609 c-46 -13 -66 -56 -66 -139 -1 -111 47 -165 128 -144 58 15
78 51 78 142 0 88 -17 124 -67 141 -35 12 -32 12 -73 0z"/>
<path d="M4520 501 c-11 -37 -20 -73 -20 -80 0 -6 18 -11 45 -11 32 0 45 4 45
14 0 18 -39 146 -45 146 -2 0 -13 -31 -25 -69z"/>
</g>
</svg>
